<?xml version="1.0" encoding="UTF-8"?>
<svg version="1.1" xmlns="http://www.w3.org/2000/svg" width="1000" height="571">
<path d="M0 0 C0.33 0.33 0.66 0.66 1 1 C2.74174776 1.37406663 4.49406095 1.69951845 6.25 2 C8.16697007 2.33158401 10.08364158 2.66489907 12 3 C13.38445312 3.2165625 13.38445312 3.2165625 14.796875 3.4375 C15.52390625 3.623125 16.2509375 3.80875 17 4 C17.33 4.66 17.66 5.32 18 6 C19.299375 5.979375 20.59875 5.95875 21.9375 5.9375 C23.29165633 5.91600546 24.64756083 5.92851801 26 6 C26.33 6.33 26.66 6.66 27 7 C30 7.16666667 30 7.16666667 33 7 C33.33 6.67 33.66 6.34 34 6 C37.98475967 5.61685003 40.30848212 5.60045633 43.8125 7.625 C49.1831834 13.45602769 48.21753531 20.53128755 48 28 C48.928125 28.20625 49.85625 28.4125 50.8125 28.625 C54 30 54 30 55.875 32.6875 C57.11752195 36.34603685 57.30104812 39.16163642 57 43 C56.67 43.33 56.34 43.66 56 44 C56.99 44.31453125 57.98 44.6290625 59 44.953125 C75.6327977 50.31202031 75.6327977 50.31202031 82.375 55.625 C85.95323733 58.33129904 89.41387224 58.76958269 93.765625 59.48828125 C96.89395323 60.20473404 98.18341259 61.38411412 100 64 C100.7115625 65.5159375 100.7115625 65.5159375 101.4375 67.0625 C103.212224 70.39898112 104.74612774 71.24115013 108 73 C108 73.66 108 74.32 108 75 C108.886875 74.896875 109.77375 74.79375 110.6875 74.6875 C114 75 114 75 116.8125 77.0625 C119.3860764 80.51844545 119.47318546 82.78548371 120 87 C121.8855622 90.14260367 123.2686485 91.64324317 126.5625 93.25 C130.54857928 94.11969003 134.44255527 94.43112339 138.51171875 94.65625 C141 95 141 95 144 97 C144 97.66 144 98.32 144 99 C144.886875 98.896875 145.77375 98.79375 146.6875 98.6875 C150 99 150 99 152.875 101.375 C155 104 155 104 155 106 C156.485 105.505 156.485 105.505 158 105 C164.50720342 104.43903419 169.36025687 105.61862228 175 109 C175.33 109.66 175.66 110.32 176 111 C177.99145391 112.01691264 179.99187074 113.01642648 182 114 C184 116 184 116 184.3125 118.5 C184.539375 119.325 184.76625 120.15 185 121 C185.763125 121.268125 186.52625 121.53625 187.3125 121.8125 C190.98735669 123.43627389 191.40127094 125.57210569 192.9609375 129.12890625 C193.92379327 131.26626209 193.92379327 131.26626209 196.625 132.375 C199 134 199 134 199.69140625 136.2890625 C200.01562811 138.06079453 200.30126858 139.8401372 200.54296875 141.625 C200.88995786 144.25470265 200.88995786 144.25470265 203 147 C203.125 149.6875 203.125 149.6875 203 152 C203.8353125 152.3403125 203.8353125 152.3403125 204.6875 152.6875 C207.68041199 154.38617978 209.73527237 156.42072687 212 159 C212 159.99 212 160.98 212 162 C214.7746344 163.68957139 214.7746344 163.68957139 217.9375 163.74609375 C220.33090393 162.88029801 221.46822559 161.79907319 223.25 160 C227.07008903 156.53623164 229.91961344 156.17825918 235 156 C235.103125 155.236875 235.20625 154.47375 235.3125 153.6875 C236.09244407 150.63862774 236.41397337 149.75182449 239 148 C244.13168448 146.22364768 249.29300448 145.65516268 254.6875 145.1875 C255.94949219 145.07792969 257.21148437 144.96835938 258.51171875 144.85546875 C262.37531125 145.01555041 263.84712517 145.8928548 267 148 C269.48400985 148.66347631 269.48400985 148.66347631 272 149 C275.87069373 149.70481289 278.946946 150.35401987 282 153 C282 154.32 282 155.64 282 157 C282.9075 156.7525 283.815 156.505 284.75 156.25 C288 156 288 156 290.375 157.5625 C292.43920967 160.65881451 292.4576165 162.33906799 292 166 C291 168.375 291 168.375 290 170 C289.34 170 288.68 170 288 170 C288 170.99 288 171.98 288 173 C288.99 173.33 289.98 173.66 291 174 C291.58984375 175.92578125 291.58984375 175.92578125 291.9375 178.3125 C292.7147413 182.48193849 293.82402546 184.13137783 297 187 C298.33755874 191.16700992 297.70618558 194.14948448 296.5625 198.3125 C296.27503906 199.38113281 295.98757813 200.44976562 295.69140625 201.55078125 C295.34916016 202.76314453 295.34916016 202.76314453 295 204 C298.86878431 205.15240384 302.65699117 206.13058293 306.625 206.875 C310.67290305 207.78217012 313.12192668 208.87523468 316 212 C318.2372804 215.64294013 320 218.67303505 320 223 C320.90492188 222.85691406 320.90492188 222.85691406 321.828125 222.7109375 C322.62734375 222.60007813 323.4265625 222.48921875 324.25 222.375 C325.03890625 222.25898438 325.8278125 222.14296875 326.640625 222.0234375 C329.37010238 221.99632349 330.63727494 222.70050122 333 224 C334.32637134 224.30309658 335.66043182 224.57441269 337 224.8125 C340.26317248 225.57350105 340.99207242 225.99207242 343.5 228.5 C345 231 345 231 345 233 C345.61875 233.04125 346.2375 233.0825 346.875 233.125 C347.57625 233.41375 348.2775 233.7025 349 234 C349.226875 234.94875 349.45375 235.8975 349.6875 236.875 C350.63789214 240.08734918 350.63789214 240.08734918 352.98046875 240.9921875 C354.54533135 241.4874295 356.12273012 241.94506003 357.7109375 242.359375 C360 243 360 243 362.17578125 244.12890625 C362.77777344 244.41636719 363.37976563 244.70382812 364 245 C365.90010348 244.17574711 365.90010348 244.17574711 368 243 C369.11375 242.95875 370.2275 242.9175 371.375 242.875 C376.03938353 241.74911432 377.06723909 239.8413581 379.54296875 235.91015625 C382.31706149 232.27334298 385.86386159 231.60152755 390.25 231 C394.61080158 230.65649227 396.91714615 231.06539779 400.4375 233.6875 C401.66059902 234.75209807 402.84829071 235.85855093 404 237 C404.72574219 237.59683594 405.45148437 238.19367188 406.19921875 238.80859375 C408.62444104 241.75989462 408.47181127 243.5993606 408.375 247.375 C408.36210938 248.47585938 408.34921875 249.57671875 408.3359375 250.7109375 C407.71668516 256.77384998 405.62182411 261.13317386 402 266 C401.01 266.495 401.01 266.495 400 267 C400 270.63 400 274.26 400 278 C401.65 277.67 403.3 277.34 405 277 C407.75391254 277.93242708 409.56367042 279.31331029 412 281 C412.33 281.99 412.66 282.98 413 284 C414.0209375 283.4740625 414.0209375 283.4740625 415.0625 282.9375 C418.7087789 281.77379397 421.28489978 282.27154898 425 283 C425.309375 282.360625 425.61875 281.72125 425.9375 281.0625 C427 279 427 279 428 278 C436.82340726 277.17702165 443.94747298 278.38523837 452 282 C452.32613281 281.37351562 452.65226563 280.74703125 452.98828125 280.1015625 C453.42527344 279.28429687 453.86226562 278.46703125 454.3125 277.625 C454.74175781 276.81289063 455.17101562 276.00078125 455.61328125 275.1640625 C457 273 457 273 460 271 C463.92819709 271.07142177 466.22712772 271.41017642 469.375 273.8125 C471.4791871 277.93994393 471.47877653 281.54495661 471.75390625 286.12109375 C472.07361795 289.86121322 472.63723189 292.04653986 475 295 C477.25929588 296.11278752 479.55546747 297.02155565 481.90234375 297.93359375 C484 299 484 299 486.0625 302.0625 C487 305 487 305 487 308 C487.66 308 488.32 308 489 308 C490.3797066 310.46376179 491.09644406 312.45591736 491.6875 315.25 C493.20828518 319.59510053 495.32046294 321.99816141 498.44140625 325.30078125 C500 327 500 327 501 329 C499.5625 331.625 499.5625 331.625 498 334 C499.98 334 501.96 334 504 334 C503.855625 333.46375 503.71125 332.9275 503.5625 332.375 C503.376875 331.59125 503.19125 330.8075 503 330 C502.79375 329.13375 502.5875 328.2675 502.375 327.375 C501.770822 321.93739801 501.38160518 316.12065528 504.8125 311.625 C505.534375 311.08875 506.25625 310.5525 507 310 C507.70125 309.2575 508.4025 308.515 509.125 307.75 C511 306 511 306 513 306 C513.33 304.35 513.66 302.7 514 301 C518.12168689 299.37049588 520.70700357 298.73735399 525 300 C528.12611043 308.6705327 529.35056275 315.83695116 528 325 C528.845625 325.12375 529.69125 325.2475 530.5625 325.375 C534.16417876 326.02985068 537.54546454 326.78075219 541 328 C541.33 328.99 541.66 329.98 542 331 C544.34533951 331.76956136 544.34533951 331.76956136 547 332 C548.64594139 330.60411246 548.64594139 330.60411246 550 329 C550.99 329 551.98 329 553 329 C553.103125 327.948125 553.20625 326.89625 553.3125 325.8125 C553.99910143 322.00498299 554.93011253 320.18444226 557 317 C557.53995655 315.77911303 558.06012012 314.54932356 558.5625 313.3125 C560 310 560 310 562 308 C566.95749406 307.68016167 569.60011239 307.8000562 574 310 C574.59167969 309.67386719 575.18335938 309.34773438 575.79296875 309.01171875 C578.60260698 307.72376069 580.06774984 308.05060743 583.0625 308.6875 C583.91972656 308.85636719 584.77695312 309.02523438 585.66015625 309.19921875 C588.24217872 310.08288253 589.3721902 310.82615274 591 313 C591.6875 316.6875 591.6875 316.6875 592 320 C592.99 319.67 593.98 319.34 595 319 C599.51786506 318.48854358 601.37902565 318.55289847 605.125 321.25 C606.07375 322.1575 607.0225 323.065 608 324 C611.7303927 327.53405625 613.84735342 328.13945254 618.93359375 328.53515625 C622.74791621 329.39319854 625.58251849 332.00792868 628 335 C628.69140625 337.19921875 628.69140625 337.19921875 629 339 C629.99 339 630.98 339 632 339 C632.33 340.65 632.66 342.3 633 344 C635.76443801 344.78150791 635.76443801 344.78150791 639 345 C639.804375 344.505 640.60875 344.01 641.4375 343.5 C644.9718564 341.43110845 647.08104279 342.14495479 651 343 C651.64710938 343.22945313 652.29421875 343.45890625 652.9609375 343.6953125 C655.75775649 344.11322798 656.77720431 343.21898274 659.0625 341.625 C661.47343477 339.96835001 663.18816679 338.93727774 666 338 C666.66 339.65 667.32 341.3 668 343 C671.43230448 342.73606499 671.43230448 342.73606499 675 342 C675.66 341.01 676.32 340.02 677 339 C678.43931117 339.45261358 679.87638999 339.91232979 681.3125 340.375 C682.11300781 340.63023437 682.91351562 340.88546875 683.73828125 341.1484375 C686 342 686 342 689 344 C691.50896686 344.45601261 691.50896686 344.45601261 694.1875 344.625 C695.08855469 344.69976562 695.98960937 344.77453125 696.91796875 344.8515625 C697.60503906 344.90054687 698.29210937 344.94953125 699 345 C699.29132812 344.43152344 699.58265625 343.86304688 699.8828125 343.27734375 C705.53695541 332.62692991 705.53695541 332.62692991 710 329 C713.125 328.375 713.125 328.375 716 329 C717.34990354 329.97751635 718.68036291 330.98199424 720 332 C724.55705623 334.08591027 728.67115291 335.16889657 733.6875 334.9375 C741.74561573 334.68568388 750.44680063 337.04616006 757.3125 341.3125 C760 344 760 344 761.125 347.0625 C760.8670739 355.18717213 758.37136519 362.67094524 755 370 C754.649375 371.093125 754.29875 372.18625 753.9375 373.3125 C753 376 753 376 751 378 C750.32558869 379.6635479 749.6599679 381.33066942 749 383 C748.2575 384.175625 748.2575 384.175625 747.5 385.375 C745.70821514 388.51062351 744.79588012 391.48486281 744 395 C744.33 395.66 744.66 396.32 745 397 C745.23121387 404.16763006 745.23121387 404.16763006 744.375 407.25 C743.79339513 409.07483326 743.79339513 409.07483326 744.9375 410.875 C746.40271569 413.80543137 746.39688097 415.75880545 746 419 C744.71937515 420.7074998 743.38232443 422.37373596 742 424 C740.16207782 428.53530437 739.58159666 432.75833142 739.25 437.625 C739.15203125 438.91664063 739.0540625 440.20828125 738.953125 441.5390625 C739.01319441 445.97418699 739.72630984 447.74253519 742.83984375 450.81640625 C743.53207031 451.39261719 744.22429688 451.96882813 744.9375 452.5625 C746.29627978 453.70285911 747.65071017 454.84842789 749 456 C749.55816406 456.4434375 750.11632812 456.886875 750.69140625 457.34375 C752.58562507 459.74120904 752.64327186 461.93132222 753 464.9375 C753.5275558 469.37226592 754.32812281 471.49963376 757 475 C759.35313254 483.80851754 760.10470218 492.37582727 757 501 C756.44012462 503.60201076 755.94478199 506.21028004 755.46484375 508.828125 C755 511 755 511 754 513 C754.66 513 755.32 513 756 513 C756 513.66 756 514.32 756 515 C755.38125 515.185625 754.7625 515.37125 754.125 515.5625 C751.55216624 517.30294637 751.14234826 518.77795023 750.421875 521.734375 C750.09929116 523.4667697 749.82733382 525.20866328 749.578125 526.953125 C748.08163265 537.42857143 748.08163265 537.42857143 744 541 C743.34 541 742.68 541 742 541 C742 541.66 742 542.32 742 543 C741.34 543 740.68 543 740 543 C739.87625 543.639375 739.7525 544.27875 739.625 544.9375 C739.41875 545.618125 739.2125 546.29875 739 547 C735.89951072 548.55024464 733.42105782 548.28992015 730 548 C727.375 546.1875 727.375 546.1875 725 544 C724.113125 543.505 723.22625 543.01 722.3125 542.5 C719.80798161 540.87544753 719.04322186 539.75031217 718 537 C717.67 537.33 717.34 537.66 717 538 C715.2984375 538.185625 715.2984375 538.185625 713.5625 538.375 C712.386875 538.58125 711.21125 538.7875 710 539 C709.34 539.99 708.68 540.98 708 542 C706.3125 542.8125 706.3125 542.8125 704 543 C702.39125 542.38125 702.39125 542.38125 700.75 541.75 C697.21042647 540.646274 697.21042647 540.646274 695.015625 541.9765625 C693.66355174 542.91462883 692.3119951 543.85344019 690.9609375 544.79296875 C687.71417585 546.79147343 685.71514376 546.70459623 682 546 C680.30644442 545.02442429 678.64129767 543.99864109 677 542.9375 C673.49990479 540.67868665 672.35557393 540.00564403 668.0625 539.9375 C663.86114222 541.39511392 662.68878336 542.65523249 660.6875 546.5625 C659 549 659 549 656.125 550.4375 C650.27766194 551.49002085 645.89268729 547.87805135 641 545 C641 544.34 641 543.68 641 543 C640.443125 543.14179687 639.88625 543.28359375 639.3125 543.4296875 C635.69751993 544.12581542 633.09994607 544.54619315 629.7265625 542.87109375 C624.40596146 538.92514614 621.09852951 535.21372584 619.3125 528.75 C619.06113281 527.85796875 618.80976562 526.9659375 618.55078125 526.046875 C618.36902344 525.37140625 618.18726563 524.6959375 618 524 C617.40574219 524.47050781 616.81148437 524.94101562 616.19921875 525.42578125 C614 527 614 527 610.8125 528.1875 C607.36851723 529.55181866 605.16730228 531.57584058 602.5 534.125 C598.70392813 537.65637978 596.3177542 538.8977355 591 539 C590.175 539.185625 589.35 539.37125 588.5 539.5625 C581.45534553 540.79531453 577.84153489 539.74739974 572 536 C570.67353844 535.3197633 569.34391123 534.64507739 568 534 C568 533.34 568 532.68 568 532 C567.40832031 531.81824219 566.81664062 531.63648438 566.20703125 531.44921875 C565.02173828 531.07216797 565.02173828 531.07216797 563.8125 530.6875 C562.64654297 530.32205078 562.64654297 530.32205078 561.45703125 529.94921875 C558.74999023 528.90341435 556.47962391 527.50291709 554 526 C547.18382875 522.87750814 540.1866237 520.14439578 533 518 C532.29617188 517.78988281 531.59234375 517.57976563 530.8671875 517.36328125 C528.94060831 516.79149291 528.94060831 516.79149291 527.125 517.9375 C524.27462323 519.36268838 522.14785177 519.26790228 519 519 C518.01 518.34 517.02 517.68 516 517 C513.99375996 516.54697805 511.98746607 516.09418639 509.98046875 515.64453125 C508 515 508 515 505.4375 512.8125 C503.05421287 510.68286188 503.05421287 510.68286188 499.625 510.875 C496.18204023 511.94350476 495.1372016 512.54888741 492.625 514.875 C488.84258297 518.32120218 485.25971007 520.85114028 480 521 C475.93564921 519.56364566 472.39696217 517.6569097 469 515 C468.67 514.01 468.34 513.02 468 512 C467.401875 511.7525 466.80375 511.505 466.1875 511.25 C462.68914676 509.25094101 461.13440991 506.75773282 460 503 C459.66907147 497.9740229 459.76704245 493.02800054 460 488 C457.03341439 486.18708657 454.48180974 485.252712 451 485 C447.17941385 486.41981242 443.9633636 488.13670596 440.4296875 490.16796875 C436.98648371 492.00721998 433.75399481 492.98753096 430 494 C428.37485532 495.45833358 428.37485532 495.45833358 427 497 C421.63865619 499.99604507 415.91206366 499.76446597 410.11328125 498.2421875 C405.12027009 496.54896342 401.43573921 495.15087045 398 491 C396.60714286 484.78571429 396.60714286 484.78571429 398 482 C396.80375 482.495 395.6075 482.99 394.375 483.5 C390.740399 484.83332806 387.89817473 485.69300884 384 485 C381.5 482.6875 381.5 482.6875 379 480 C377.4221875 479.2265625 377.4221875 479.2265625 375.8125 478.4375 C373 477 373 477 371.625 475.0625 C371 473 371 473 371 469 C370.113125 468.896875 369.22625 468.79375 368.3125 468.6875 C365 468 365 468 362.640625 466.48046875 C359.63686026 464.79640538 357.84910106 464.67141634 354.4375 464.625 C347.71198286 464.22496924 341.87259836 462.30931439 336 459 C333.30954805 454.96432207 333.43376377 451.7432542 334 447 C334.495 446.030625 334.99 445.06125 335.5 444.0625 C338.10496208 438.74403575 337.6331548 433.92575454 336.40234375 428.23828125 C335.28663522 425.14410983 334.35189052 423.32123273 332 421 C327.03521438 419.24900222 322.20746479 418.61651595 317 418 C316.01 417.67 315.02 417.34 314 417 C310.69157006 416.63560368 307.38565231 416.28578162 304.06835938 416.01367188 C299.12101904 415.49070699 295.94103267 414.25089792 292 411 C291.125 408.25 291.125 408.25 291 406 C290.0925 406.103125 289.185 406.20625 288.25 406.3125 C285 406 285 406 282.875 403.625 C282.25625 402.75875 281.6375 401.8925 281 401 C278.94998791 399.83392123 278.94998791 399.83392123 277 399 C276.62875 399.75796875 276.62875 399.75796875 276.25 400.53125 C274.6736302 403.01403244 273.48847343 404.38167905 271 406 C266.74707534 406.46970051 262.74336016 406.39260864 258.484375 406.1484375 C255.14755079 405.72419243 255.14755079 405.72419243 253 407 C253.20625 407.721875 253.4125 408.44375 253.625 409.1875 C254.06417787 412.48133402 253.53657115 414.08860203 252 417 C248.82952795 418.58523603 246.527908 418.32231136 243 418 C239.84784879 416.70124717 236.98105838 415.00359794 234.0625 413.25 C231.77618347 411.91583056 229.48727831 410.58655297 227.19384766 409.26464844 C225.79511196 408.45834409 224.40327142 407.63987217 223.02099609 406.80566406 C217.5786259 403.74252473 212.67601585 403.34874444 206.5 403.25 C205.5821875 403.22035156 204.664375 403.19070313 203.71875 403.16015625 C201.47908236 403.09016664 199.24041212 403.03712683 197 403 C196.88011719 404.24136719 196.76023437 405.48273438 196.63671875 406.76171875 C196.02404306 411.61500835 194.41093985 414.50609134 191 418 C187.58677543 420.42718192 185.05479565 421.24765688 180.9375 421 C176.73777636 420.27451991 174.59320792 418.40358539 172 415 C172 414.01 172 413.02 172 412 C171.236875 411.731875 170.47375 411.46375 169.6875 411.1875 C167 410 167 410 165.703125 408.42578125 C163.1826548 406.31575459 161.29032653 406.81219918 158.0625 407 C151.27108921 407.15952978 142.61922689 407.03005042 137.15234375 402.453125 C133.54805272 400.01973795 129.25455348 400.21066003 125.01953125 399.91601562 C120.05438899 399.45316338 116.94034541 398.28754192 113 395 C110.88134666 391.95443582 110.52252288 388.82183326 110 385.1875 C109.2989727 380.64194999 108.39324212 376.37876095 107 372 C106.113125 372.28875 105.22625 372.5775 104.3125 372.875 C95.19888291 375.46304542 83.93839402 378.05559793 74.75 374.875 C72.02397718 373.01634808 70.3861028 371.05241535 68.390625 368.45703125 C66.81072834 366.80169009 65.46987893 366.14841353 63.375 365.25 C59.36755432 363.47646001 56.70497484 360.97449316 53.5625 357.9375 C49.44999607 354.03633308 46.34096675 351.95342977 40.8828125 350.57421875 C38.14896485 349.74045194 36.67770986 348.26126112 35 346 C35 345.34 35 344.68 35 344 C31.65747276 343.92572162 29.1964086 343.93453047 26 345 C25.71125 345.61875 25.4225 346.2375 25.125 346.875 C23.53942068 349.86998315 22.12805922 350.70797554 19 352 C10.44188931 352.29510727 3.81461777 347.41505061 -2.38671875 341.86328125 C-3.12535156 341.16589844 -3.86398438 340.46851563 -4.625 339.75 C-8.24491132 336.37616494 -11.23122897 334.98047044 -15.95703125 333.6953125 C-18.55608591 332.8107394 -20.27896573 331.24502644 -22.265625 329.38671875 C-24.55376237 327.55723955 -27.02215372 326.33929524 -29.625 325 C-35.72237733 321.76516345 -38.74327422 318.58211687 -41 312 C-41.66 312.495 -42.32 312.99 -43 313.5 C-47.01034059 315.50517029 -49.54328182 315.29224382 -54 315 C-57.08980073 313.45509963 -57.68367403 311.11131592 -59 308 C-58.938125 307.195625 -58.87625 306.39125 -58.8125 305.5625 C-59.03755965 302.48668484 -59.67768627 302.05067102 -61.75 299.875 C-65.80335931 295.52388206 -69 289.06086581 -69 283 C-69.92941406 282.81824219 -70.85882813 282.63648438 -71.81640625 282.44921875 C-79.60958927 280.86457778 -86.33116821 279.44588786 -93 275 C-94.670625 274.5978125 -94.670625 274.5978125 -96.375 274.1875 C-100.47021491 272.84596408 -102.2818161 271.29476837 -105 268 C-105 267.34 -105 266.68 -105 266 C-106.155 266 -107.31 266 -108.5 266 C-113.58613809 265.40691676 -115.80090946 262.58669211 -119.1171875 258.92578125 C-121.45341172 256.53624071 -124.00552748 255.42918007 -127 254 C-127.8971875 252.7625 -127.8971875 252.7625 -128.8125 251.5 C-131.92707382 247.94048706 -135.52170694 247.17698728 -140 246 C-139.938125 247.0725 -139.87625 248.145 -139.8125 249.25 C-140 253 -140 253 -141.0625 255.4375 C-143 257 -143 257 -146.3125 257.625 C-150.64946045 256.88992196 -152.03890524 255.63679694 -154.93359375 252.5078125 C-156 251 -156 251 -156 249 C-156.59167969 249.11859375 -157.18335938 249.2371875 -157.79296875 249.359375 C-164.24276035 250.41154329 -164.24276035 250.41154329 -167.875 248.4375 C-170.52847025 245.39381354 -173 242.1777345 -173 238 C-173.78375 237.731875 -174.5675 237.46375 -175.375 237.1875 C-178 236 -178 236 -180 233 C-182.05154736 232.17159758 -182.05154736 232.17159758 -184.375 231.625 C-188.60884142 230.33643957 -190.68828674 228.91986161 -193 225 C-193 224.34 -193 223.68 -193 223 C-193.886875 223.0825 -194.77375 223.165 -195.6875 223.25 C-199.74088462 222.94408418 -201.16191707 221.83808293 -204 219 C-205.9956132 213.0131604 -205.8523154 206.24701333 -203.625 200.375 C-202 198 -202 198 -200 196 C-199.42771473 193.807387 -199.42771473 193.807387 -199.0625 191.3125 C-197.64646542 183.7891407 -195.08933135 176.95284324 -189 172 C-185.125 171.0625 -185.125 171.0625 -182 171 C-182.226875 170.278125 -182.45375 169.55625 -182.6875 168.8125 C-183 166 -183 166 -181.8125 163.25 C-180 161 -180 161 -177.8125 160.1875 C-177.214375 160.125625 -176.61625 160.06375 -176 160 C-175.27629386 154.49983331 -177.2749734 150.96863909 -179.80859375 146.26953125 C-182.25849433 141.60267145 -182.70137594 137.18083026 -182 132 C-180.125 129.4375 -180.125 129.4375 -178 128 C-177.34 128 -176.68 128 -176 128 C-175.5978125 127.071875 -175.5978125 127.071875 -175.1875 126.125 C-174 124 -174 124 -171 122 C-169.97402909 120.2366125 -168.95085162 118.47065515 -167.98828125 116.671875 C-167 115 -167 115 -165.1875 113.3125 C-164.795625 112.879375 -164.40375 112.44625 -164 112 C-164.49509605 109.25076074 -165.44955774 106.76633575 -166.5 104.1875 C-169.14176253 96.96935086 -169.14176253 96.96935086 -169 93 C-165.50556523 87.59313818 -160.84576639 82.77611811 -154.5625 81.0625 C-150.52124367 79.85721302 -148.79297176 79.17040037 -146 76 C-145.27620344 74.01995884 -144.61567685 72.01628035 -144 70 C-142.88668302 66.37288397 -142.20493383 64.24478208 -139.75 61.3125 C-136.68616107 59.85021324 -134.27428465 59.59376812 -130.9296875 59.34765625 C-127.94541656 58.8100042 -126.19035695 56.99709016 -124 55 C-123.34 55 -122.68 55 -122 55 C-121.90460938 54.26136719 -121.80921875 53.52273437 -121.7109375 52.76171875 C-120.90058867 49.61382524 -119.80544642 48.19075063 -117.625 45.8125 C-117.01914063 45.13832031 -116.41328125 44.46414062 -115.7890625 43.76953125 C-114 42 -114 42 -111 40 C-110.7525 38.989375 -110.505 37.97875 -110.25 36.9375 C-108.93759972 31.73164554 -105.71568382 27.77826376 -102 24 C-95.68653123 20.77610105 -87.98964314 20.85438243 -81 21 C-80.71125 22.051875 -80.4225 23.10375 -80.125 24.1875 C-78.49598754 29.89708279 -78.49598754 29.89708279 -75.5 34.9375 C-72.2378345 39.42297757 -71.64744375 44.60463538 -71 50 C-68.21176345 51.0326802 -67.1322726 51.04509293 -64.25 50.0625 C-63.13625 49.5365625 -63.13625 49.5365625 -62 49 C-61.67944493 45.21625682 -61.67944493 45.21625682 -63.0625 43.0625 C-64.30922972 40.31969461 -63.89374256 38.83018476 -63 36 C-60.29964259 33.29964259 -57.86920086 33.28423013 -54.19140625 32.66015625 C-51.5274441 31.85764359 -50.62262904 31.26600382 -49 29 C-46.51182164 22.57627156 -46.90962026 16.59122162 -47.25390625 9.8515625 C-47.36423251 5.77598068 -47.3220428 3.56647619 -45.265625 -0.05078125 C-42.0937098 -2.77972209 -40.28622161 -2.64762045 -36.26171875 -2.44140625 C-32.76183833 -1.75835532 -30.7378953 -0.2464782 -28 2 C-27.855625 1.236875 -27.71125 0.47375 -27.5625 -0.3125 C-25.46275091 -3.92406844 -23.43012322 -4.51650371 -19.5 -5.625 C-12.47484104 -6.67877384 -5.93683051 -3.49848941 0 0 Z " fill="#DA123B" transform="translate(222,13)"/>
<path d="M0 0 C0.33 0.33 0.66 0.66 1 1 C2.74174776 1.37406663 4.49406095 1.69951845 6.25 2 C8.16697007 2.33158401 10.08364158 2.66489907 12 3 C13.38445312 3.2165625 13.38445312 3.2165625 14.796875 3.4375 C15.52390625 3.623125 16.2509375 3.80875 17 4 C17.33 4.66 17.66 5.32 18 6 C19.299375 5.979375 20.59875 5.95875 21.9375 5.9375 C23.29165633 5.91600546 24.64756083 5.92851801 26 6 C26.33 6.33 26.66 6.66 27 7 C30 7.16666667 30 7.16666667 33 7 C33.33 6.67 33.66 6.34 34 6 C37.98475967 5.61685003 40.30848212 5.60045633 43.8125 7.625 C49.1831834 13.45602769 48.21753531 20.53128755 48 28 C48.928125 28.20625 49.85625 28.4125 50.8125 28.625 C54 30 54 30 55.875 32.6875 C57.11752195 36.34603685 57.30104812 39.16163642 57 43 C56.67 43.33 56.34 43.66 56 44 C56.99 44.31453125 57.98 44.6290625 59 44.953125 C75.6327977 50.31202031 75.6327977 50.31202031 82.375 55.625 C85.95323733 58.33129904 89.41387224 58.76958269 93.765625 59.48828125 C96.89395323 60.20473404 98.18341259 61.38411412 100 64 C100.7115625 65.5159375 100.7115625 65.5159375 101.4375 67.0625 C103.212224 70.39898112 104.74612774 71.24115013 108 73 C108 73.66 108 74.32 108 75 C108.886875 74.896875 109.77375 74.79375 110.6875 74.6875 C114 75 114 75 116.8125 77.0625 C119.3860764 80.51844545 119.47318546 82.78548371 120 87 C121.8855622 90.14260367 123.2686485 91.64324317 126.5625 93.25 C130.54857928 94.11969003 134.44255527 94.43112339 138.51171875 94.65625 C141 95 141 95 144 97 C144 97.66 144 98.32 144 99 C144.886875 98.896875 145.77375 98.79375 146.6875 98.6875 C150 99 150 99 152.875 101.375 C155 104 155 104 155 106 C156.485 105.505 156.485 105.505 158 105 C164.50720342 104.43903419 169.36025687 105.61862228 175 109 C175.33 109.66 175.66 110.32 176 111 C177.99145391 112.01691264 179.99187074 113.01642648 182 114 C184 116 184 116 184.3125 118.5 C184.539375 119.325 184.76625 120.15 185 121 C185.763125 121.268125 186.52625 121.53625 187.3125 121.8125 C190.98735669 123.43627389 191.40127094 125.57210569 192.9609375 129.12890625 C193.92379327 131.26626209 193.92379327 131.26626209 196.625 132.375 C199 134 199 134 199.69140625 136.2890625 C200.01562811 138.06079453 200.30126858 139.8401372 200.54296875 141.625 C200.88995786 144.25470265 200.88995786 144.25470265 203 147 C203.125 149.6875 203.125 149.6875 203 152 C203.8353125 152.3403125 203.8353125 152.3403125 204.6875 152.6875 C207.68041199 154.38617978 209.73527237 156.42072687 212 159 C212 159.99 212 160.98 212 162 C214.7746344 163.68957139 214.7746344 163.68957139 217.9375 163.74609375 C220.33090393 162.88029801 221.46822559 161.79907319 223.25 160 C227.07008903 156.53623164 229.91961344 156.17825918 235 156 C235.103125 155.236875 235.20625 154.47375 235.3125 153.6875 C236.09244407 150.63862774 236.41397337 149.75182449 239 148 C244.13168448 146.22364768 249.29300448 145.65516268 254.6875 145.1875 C255.94949219 145.07792969 257.21148437 144.96835938 258.51171875 144.85546875 C262.37531125 145.01555041 263.84712517 145.8928548 267 148 C269.48400985 148.66347631 269.48400985 148.66347631 272 149 C275.87069373 149.70481289 278.946946 150.35401987 282 153 C282 154.32 282 155.64 282 157 C282.9075 156.7525 283.815 156.505 284.75 156.25 C288 156 288 156 290.375 157.5625 C292.43920967 160.65881451 292.4576165 162.33906799 292 166 C291 168.375 291 168.375 290 170 C289.34 170 288.68 170 288 170 C288 170.99 288 171.98 288 173 C288.99 173.33 289.98 173.66 291 174 C291.58984375 175.92578125 291.58984375 175.92578125 291.9375 178.3125 C292.7147413 182.48193849 293.82402546 184.13137783 297 187 C298.33755874 191.16700992 297.70618558 194.14948448 296.5625 198.3125 C296.27503906 199.38113281 295.98757813 200.44976562 295.69140625 201.55078125 C295.34916016 202.76314453 295.34916016 202.76314453 295 204 C298.86878431 205.15240384 302.65699117 206.13058293 306.625 206.875 C310.67290305 207.78217012 313.12192668 208.87523468 316 212 C318.2372804 215.64294013 320 218.67303505 320 223 C320.90492188 222.85691406 320.90492188 222.85691406 321.828125 222.7109375 C322.62734375 222.60007813 323.4265625 222.48921875 324.25 222.375 C325.03890625 222.25898438 325.8278125 222.14296875 326.640625 222.0234375 C329.37010238 221.99632349 330.63727494 222.70050122 333 224 C334.32637134 224.30309658 335.66043182 224.57441269 337 224.8125 C340.26317248 225.57350105 340.99207242 225.99207242 343.5 228.5 C345 231 345 231 345 233 C345.61875 233.04125 346.2375 233.0825 346.875 233.125 C347.57625 233.41375 348.2775 233.7025 349 234 C349.226875 234.94875 349.45375 235.8975 349.6875 236.875 C350.63789214 240.08734918 350.63789214 240.08734918 352.98046875 240.9921875 C354.54533135 241.4874295 356.12273012 241.94506003 357.7109375 242.359375 C360 243 360 243 362.17578125 244.12890625 C362.77777344 244.41636719 363.37976563 244.70382812 364 245 C365.90010348 244.17574711 365.90010348 244.17574711 368 243 C369.11375 242.95875 370.2275 242.9175 371.375 242.875 C376.03938353 241.74911432 377.06723909 239.8413581 379.54296875 235.91015625 C382.31706149 232.27334298 385.86386159 231.60152755 390.25 231 C394.61080158 230.65649227 396.91714615 231.06539779 400.4375 233.6875 C401.66059902 234.75209807 402.84829071 235.85855093 404 237 C404.72574219 237.59683594 405.45148437 238.19367188 406.19921875 238.80859375 C408.62444104 241.75989462 408.47181127 243.5993606 408.375 247.375 C408.36210938 248.47585938 408.34921875 249.57671875 408.3359375 250.7109375 C407.71668516 256.77384998 405.62182411 261.13317386 402 266 C401.01 266.495 401.01 266.495 400 267 C400 270.63 400 274.26 400 278 C401.65 277.67 403.3 277.34 405 277 C407.75391254 277.93242708 409.56367042 279.31331029 412 281 C412.33 281.99 412.66 282.98 413 284 C414.0209375 283.4740625 414.0209375 283.4740625 415.0625 282.9375 C418.7087789 281.77379397 421.28489978 282.27154898 425 283 C425.309375 282.360625 425.61875 281.72125 425.9375 281.0625 C427 279 427 279 428 278 C436.82340726 277.17702165 443.94747298 278.38523837 452 282 C452.32613281 281.37351562 452.65226563 280.74703125 452.98828125 280.1015625 C453.42527344 279.28429687 453.86226562 278.46703125 454.3125 277.625 C454.74175781 276.81289063 455.17101562 276.00078125 455.61328125 275.1640625 C457 273 457 273 460 271 C463.92819709 271.07142177 466.22712772 271.41017642 469.375 273.8125 C471.4791871 277.93994393 471.47877653 281.54495661 471.75390625 286.12109375 C472.07361795 289.86121322 472.63723189 292.04653986 475 295 C477.25929588 296.11278752 479.55546747 297.02155565 481.90234375 297.93359375 C484 299 484 299 486.0625 302.0625 C487 305 487 305 487 308 C487.66 308 488.32 308 489 308 C490.3797066 310.46376179 491.09644406 312.45591736 491.6875 315.25 C493.20828518 319.59510053 495.32046294 321.99816141 498.44140625 325.30078125 C500 327 500 327 501 329 C499.5625 331.625 499.5625 331.625 498 334 C499.98 334 501.96 334 504 334 C503.855625 333.46375 503.71125 332.9275 503.5625 332.375 C503.376875 331.59125 503.19125 330.8075 503 330 C502.79375 329.13375 502.5875 328.2675 502.375 327.375 C501.770822 321.93739801 501.38160518 316.12065528 504.8125 311.625 C505.534375 311.08875 506.25625 310.5525 507 310 C507.70125 309.2575 508.4025 308.515 509.125 307.75 C511 306 511 306 513 306 C513.33 304.35 513.66 302.7 514 301 C518.12168689 299.37049588 520.70700357 298.73735399 525 300 C528.12611043 308.6705327 529.35056275 315.83695116 528 325 C528.845625 325.12375 529.69125 325.2475 530.5625 325.375 C534.16417876 326.02985068 537.54546454 326.78075219 541 328 C541.33 328.99 541.66 329.98 542 331 C544.34533951 331.76956136 544.34533951 331.76956136 547 332 C548.64594139 330.60411246 548.64594139 330.60411246 550 329 C550.99 329 551.98 329 553 329 C553.103125 327.948125 553.20625 326.89625 553.3125 325.8125 C553.99910143 322.00498299 554.93011253 320.18444226 557 317 C557.53995655 315.77911303 558.06012012 314.54932356 558.5625 313.3125 C560 310 560 310 562 308 C566.95749406 307.68016167 569.60011239 307.8000562 574 310 C574.59167969 309.67386719 575.18335938 309.34773438 575.79296875 309.01171875 C578.60260698 307.72376069 580.06774984 308.05060743 583.0625 308.6875 C583.91972656 308.85636719 584.77695312 309.02523438 585.66015625 309.19921875 C588.24217872 310.08288253 589.3721902 310.82615274 591 313 C591.6875 316.6875 591.6875 316.6875 592 320 C592.99 319.67 593.98 319.34 595 319 C599.51786506 318.48854358 601.37902565 318.55289847 605.125 321.25 C606.07375 322.1575 607.0225 323.065 608 324 C611.7303927 327.53405625 613.84735342 328.13945254 618.93359375 328.53515625 C622.74791621 329.39319854 625.58251849 332.00792868 628 335 C628.69140625 337.19921875 628.69140625 337.19921875 629 339 C629.99 339 630.98 339 632 339 C632.33 340.65 632.66 342.3 633 344 C635.76443801 344.78150791 635.76443801 344.78150791 639 345 C639.804375 344.505 640.60875 344.01 641.4375 343.5 C644.9718564 341.43110845 647.08104279 342.14495479 651 343 C651.64710938 343.22945313 652.29421875 343.45890625 652.9609375 343.6953125 C655.75775649 344.11322798 656.77720431 343.21898274 659.0625 341.625 C661.47343477 339.96835001 663.18816679 338.93727774 666 338 C666.66 339.65 667.32 341.3 668 343 C671.43230448 342.73606499 671.43230448 342.73606499 675 342 C675.66 341.01 676.32 340.02 677 339 C678.43931117 339.45261358 679.87638999 339.91232979 681.3125 340.375 C682.11300781 340.63023437 682.91351562 340.88546875 683.73828125 341.1484375 C686 342 686 342 689 344 C691.50896686 344.45601261 691.50896686 344.45601261 694.1875 344.625 C695.08855469 344.69976562 695.98960937 344.77453125 696.91796875 344.8515625 C697.60503906 344.90054687 698.29210937 344.94953125 699 345 C699.29132812 344.43152344 699.58265625 343.86304688 699.8828125 343.27734375 C705.53695541 332.62692991 705.53695541 332.62692991 710 329 C713.125 328.375 713.125 328.375 716 329 C717.34990354 329.97751635 718.68036291 330.98199424 720 332 C724.55705623 334.08591027 728.67115291 335.16889657 733.6875 334.9375 C741.74561573 334.68568388 750.44680063 337.04616006 757.3125 341.3125 C760 344 760 344 761.125 347.0625 C760.8670739 355.18717213 758.37136519 362.67094524 755 370 C754.649375 371.093125 754.29875 372.18625 753.9375 373.3125 C753 376 753 376 751 378 C750.32558869 379.6635479 749.6599679 381.33066942 749 383 C748.2575 384.175625 748.2575 384.175625 747.5 385.375 C745.70821514 388.51062351 744.79588012 391.48486281 744 395 C744.33 395.66 744.66 396.32 745 397 C745.23121387 404.16763006 745.23121387 404.16763006 744.375 407.25 C743.79339513 409.07483326 743.79339513 409.07483326 744.9375 410.875 C746.40271569 413.80543137 746.39688097 415.75880545 746 419 C744.71937515 420.7074998 743.38232443 422.37373596 742 424 C740.16207782 428.53530437 739.58159666 432.75833142 739.25 437.625 C739.15203125 438.91664063 739.0540625 440.20828125 738.953125 441.5390625 C739.01319441 445.97418699 739.72630984 447.74253519 742.83984375 450.81640625 C743.53207031 451.39261719 744.22429688 451.96882813 744.9375 452.5625 C746.29627978 453.70285911 747.65071017 454.84842789 749 456 C749.55816406 456.4434375 750.11632812 456.886875 750.69140625 457.34375 C752.58562507 459.74120904 752.64327186 461.93132222 753 464.9375 C753.5275558 469.37226592 754.32812281 471.49963376 757 475 C759.35313254 483.80851754 760.10470218 492.37582727 757 501 C756.44012462 503.60201076 755.94478199 506.21028004 755.46484375 508.828125 C755 511 755 511 754 513 C754.66 513 755.32 513 756 513 C756 513.66 756 514.32 756 515 C755.38125 515.185625 754.7625 515.37125 754.125 515.5625 C751.55216624 517.30294637 751.14234826 518.77795023 750.421875 521.734375 C750.09929116 523.4667697 749.82733382 525.20866328 749.578125 526.953125 C748.08163265 537.42857143 748.08163265 537.42857143 744 541 C743.34 541 742.68 541 742 541 C742 541.66 742 542.32 742 543 C741.34 543 740.68 543 740 543 C739.87625 543.639375 739.7525 544.27875 739.625 544.9375 C739.41875 545.618125 739.2125 546.29875 739 547 C735.89951072 548.55024464 733.42105782 548.28992015 730 548 C727.375 546.1875 727.375 546.1875 725 544 C724.113125 543.505 723.22625 543.01 722.3125 542.5 C719.80798161 540.87544753 719.04322186 539.75031217 718 537 C717.67 537.33 717.34 537.66 717 538 C715.2984375 538.185625 715.2984375 538.185625 713.5625 538.375 C712.386875 538.58125 711.21125 538.7875 710 539 C709.34 539.99 708.68 540.98 708 542 C706.3125 542.8125 706.3125 542.8125 704 543 C702.39125 542.38125 702.39125 542.38125 700.75 541.75 C697.21042647 540.646274 697.21042647 540.646274 695.015625 541.9765625 C693.66355174 542.91462883 692.3119951 543.85344019 690.9609375 544.79296875 C687.71417585 546.79147343 685.71514376 546.70459623 682 546 C680.30644442 545.02442429 678.64129767 543.99864109 677 542.9375 C673.49990479 540.67868665 672.35557393 540.00564403 668.0625 539.9375 C663.86114222 541.39511392 662.68878336 542.65523249 660.6875 546.5625 C659 549 659 549 656.125 550.4375 C650.27766194 551.49002085 645.89268729 547.87805135 641 545 C641 544.34 641 543.68 641 543 C640.443125 543.14179687 639.88625 543.28359375 639.3125 543.4296875 C635.69751993 544.12581542 633.09994607 544.54619315 629.7265625 542.87109375 C624.40596146 538.92514614 621.09852951 535.21372584 619.3125 528.75 C619.06113281 527.85796875 618.80976562 526.9659375 618.55078125 526.046875 C618.36902344 525.37140625 618.18726563 524.6959375 618 524 C617.40574219 524.47050781 616.81148437 524.94101562 616.19921875 525.42578125 C614 527 614 527 610.8125 528.1875 C607.36851723 529.55181866 605.16730228 531.57584058 602.5 534.125 C598.70392813 537.65637978 596.3177542 538.8977355 591 539 C590.175 539.185625 589.35 539.37125 588.5 539.5625 C581.45534553 540.79531453 577.84153489 539.74739974 572 536 C570.67353844 535.3197633 569.34391123 534.64507739 568 534 C568 533.34 568 532.68 568 532 C567.40832031 531.81824219 566.81664062 531.63648438 566.20703125 531.44921875 C565.02173828 531.07216797 565.02173828 531.07216797 563.8125 530.6875 C562.64654297 530.32205078 562.64654297 530.32205078 561.45703125 529.94921875 C558.74999023 528.90341435 556.47962391 527.50291709 554 526 C547.18382875 522.87750814 540.1866237 520.14439578 533 518 C532.29617188 517.78988281 531.59234375 517.57976563 530.8671875 517.36328125 C528.94060831 516.79149291 528.94060831 516.79149291 527.125 517.9375 C524.27462323 519.36268838 522.14785177 519.26790228 519 519 C518.01 518.34 517.02 517.68 516 517 C513.99375996 516.54697805 511.98746607 516.09418639 509.98046875 515.64453125 C508 515 508 515 505.4375 512.8125 C503.05421287 510.68286188 503.05421287 510.68286188 499.625 510.875 C496.18204023 511.94350476 495.1372016 512.54888741 492.625 514.875 C488.84258297 518.32120218 485.25971007 520.85114028 480 521 C475.93564921 519.56364566 472.39696217 517.6569097 469 515 C468.67 514.01 468.34 513.02 468 512 C467.401875 511.7525 466.80375 511.505 466.1875 511.25 C462.68914676 509.25094101 461.13440991 506.75773282 460 503 C459.66907147 497.9740229 459.76704245 493.02800054 460 488 C457.03341439 486.18708657 454.48180974 485.252712 451 485 C447.17941385 486.41981242 443.9633636 488.13670596 440.4296875 490.16796875 C436.98648371 492.00721998 433.75399481 492.98753096 430 494 C428.37485532 495.45833358 428.37485532 495.45833358 427 497 C421.63865619 499.99604507 415.91206366 499.76446597 410.11328125 498.2421875 C405.12027009 496.54896342 401.43573921 495.15087045 398 491 C396.60714286 484.78571429 396.60714286 484.78571429 398 482 C396.80375 482.495 395.6075 482.99 394.375 483.5 C390.740399 484.83332806 387.89817473 485.69300884 384 485 C381.5 482.6875 381.5 482.6875 379 480 C377.4221875 479.2265625 377.4221875 479.2265625 375.8125 478.4375 C373 477 373 477 371.625 475.0625 C371 473 371 473 371 469 C370.113125 468.896875 369.22625 468.79375 368.3125 468.6875 C365 468 365 468 362.640625 466.48046875 C359.63686026 464.79640538 357.84910106 464.67141634 354.4375 464.625 C347.71198286 464.22496924 341.87259836 462.30931439 336 459 C333.30954805 454.96432207 333.43376377 451.7432542 334 447 C334.495 446.030625 334.99 445.06125 335.5 444.0625 C338.10496208 438.74403575 337.6331548 433.92575454 336.40234375 428.23828125 C335.28663522 425.14410983 334.35189052 423.32123273 332 421 C327.03521438 419.24900222 322.20746479 418.61651595 317 418 C316.01 417.67 315.02 417.34 314 417 C310.69157006 416.63560368 307.38565231 416.28578162 304.06835938 416.01367188 C299.12101904 415.49070699 295.94103267 414.25089792 292 411 C291.125 408.25 291.125 408.25 291 406 C290.0925 406.103125 289.185 406.20625 288.25 406.3125 C285 406 285 406 282.875 403.625 C282.25625 402.75875 281.6375 401.8925 281 401 C278.94998791 399.83392123 278.94998791 399.83392123 277 399 C276.62875 399.75796875 276.62875 399.75796875 276.25 400.53125 C274.6736302 403.01403244 273.48847343 404.38167905 271 406 C266.74707534 406.46970051 262.74336016 406.39260864 258.484375 406.1484375 C255.14755079 405.72419243 255.14755079 405.72419243 253 407 C253.20625 407.721875 253.4125 408.44375 253.625 409.1875 C254.06417787 412.48133402 253.53657115 414.08860203 252 417 C248.82952795 418.58523603 246.527908 418.32231136 243 418 C239.84784879 416.70124717 236.98105838 415.00359794 234.0625 413.25 C231.77618347 411.91583056 229.48727831 410.58655297 227.19384766 409.26464844 C225.79511196 408.45834409 224.40327142 407.63987217 223.02099609 406.80566406 C217.5786259 403.74252473 212.67601585 403.34874444 206.5 403.25 C205.5821875 403.22035156 204.664375 403.19070313 203.71875 403.16015625 C201.47908236 403.09016664 199.24041212 403.03712683 197 403 C196.88011719 404.24136719 196.76023437 405.48273438 196.63671875 406.76171875 C196.02404306 411.61500835 194.41093985 414.50609134 191 418 C187.58677543 420.42718192 185.05479565 421.24765688 180.9375 421 C176.73777636 420.27451991 174.59320792 418.40358539 172 415 C172 414.01 172 413.02 172 412 C171.236875 411.731875 170.47375 411.46375 169.6875 411.1875 C167 410 167 410 165.703125 408.42578125 C163.1826548 406.31575459 161.29032653 406.81219918 158.0625 407 C151.27108921 407.15952978 142.61922689 407.03005042 137.15234375 402.453125 C133.54805272 400.01973795 129.25455348 400.21066003 125.01953125 399.91601562 C120.05438899 399.45316338 116.94034541 398.28754192 113 395 C110.88134666 391.95443582 110.52252288 388.82183326 110 385.1875 C109.2989727 380.64194999 108.39324212 376.37876095 107 372 C106.113125 372.28875 105.22625 372.5775 104.3125 372.875 C95.19888291 375.46304542 83.93839402 378.05559793 74.75 374.875 C72.02397718 373.01634808 70.3861028 371.05241535 68.390625 368.45703125 C66.81072834 366.80169009 65.46987893 366.14841353 63.375 365.25 C59.36755432 363.47646001 56.70497484 360.97449316 53.5625 357.9375 C49.44999607 354.03633308 46.34096675 351.95342977 40.8828125 350.57421875 C38.14896485 349.74045194 36.67770986 348.26126112 35 346 C35 345.34 35 344.68 35 344 C31.65747276 343.92572162 29.1964086 343.93453047 26 345 C25.71125 345.61875 25.4225 346.2375 25.125 346.875 C23.53942068 349.86998315 22.12805922 350.70797554 19 352 C10.44188931 352.29510727 3.81461777 347.41505061 -2.38671875 341.86328125 C-3.12535156 341.16589844 -3.86398438 340.46851563 -4.625 339.75 C-8.24491132 336.37616494 -11.23122897 334.98047044 -15.95703125 333.6953125 C-18.55608591 332.8107394 -20.27896573 331.24502644 -22.265625 329.38671875 C-24.55376237 327.55723955 -27.02215372 326.33929524 -29.625 325 C-35.72237733 321.76516345 -38.74327422 318.58211687 -41 312 C-41.66 312.495 -42.32 312.99 -43 313.5 C-47.01034059 315.50517029 -49.54328182 315.29224382 -54 315 C-57.08980073 313.45509963 -57.68367403 311.11131592 -59 308 C-58.938125 307.195625 -58.87625 306.39125 -58.8125 305.5625 C-59.03755965 302.48668484 -59.67768627 302.05067102 -61.75 299.875 C-65.80335931 295.52388206 -69 289.06086581 -69 283 C-69.92941406 282.81824219 -70.85882813 282.63648438 -71.81640625 282.44921875 C-79.60958927 280.86457778 -86.33116821 279.44588786 -93 275 C-94.670625 274.5978125 -94.670625 274.5978125 -96.375 274.1875 C-100.47021491 272.84596408 -102.2818161 271.29476837 -105 268 C-105 267.34 -105 266.68 -105 266 C-106.155 266 -107.31 266 -108.5 266 C-113.58613809 265.40691676 -115.80090946 262.58669211 -119.1171875 258.92578125 C-121.45341172 256.53624071 -124.00552748 255.42918007 -127 254 C-127.8971875 252.7625 -127.8971875 252.7625 -128.8125 251.5 C-131.92707382 247.94048706 -135.52170694 247.17698728 -140 246 C-139.938125 247.0725 -139.87625 248.145 -139.8125 249.25 C-140 253 -140 253 -141.0625 255.4375 C-143 257 -143 257 -146.3125 257.625 C-150.64946045 256.88992196 -152.03890524 255.63679694 -154.93359375 252.5078125 C-156 251 -156 251 -156 249 C-156.59167969 249.11859375 -157.18335938 249.2371875 -157.79296875 249.359375 C-164.24276035 250.41154329 -164.24276035 250.41154329 -167.875 248.4375 C-170.52847025 245.39381354 -173 242.1777345 -173 238 C-173.78375 237.731875 -174.5675 237.46375 -175.375 237.1875 C-178 236 -178 236 -180 233 C-182.05154736 232.17159758 -182.05154736 232.17159758 -184.375 231.625 C-188.60884142 230.33643957 -190.68828674 228.91986161 -193 225 C-193 224.34 -193 223.68 -193 223 C-193.886875 223.0825 -194.77375 223.165 -195.6875 223.25 C-199.74088462 222.94408418 -201.16191707 221.83808293 -204 219 C-205.9956132 213.0131604 -205.8523154 206.24701333 -203.625 200.375 C-202 198 -202 198 -200 196 C-199.42771473 193.807387 -199.42771473 193.807387 -199.0625 191.3125 C-197.64646542 183.7891407 -195.08933135 176.95284324 -189 172 C-185.125 171.0625 -185.125 171.0625 -182 171 C-182.226875 170.278125 -182.45375 169.55625 -182.6875 168.8125 C-183 166 -183 166 -181.8125 163.25 C-180 161 -180 161 -177.8125 160.1875 C-177.214375 160.125625 -176.61625 160.06375 -176 160 C-175.27629386 154.49983331 -177.2749734 150.96863909 -179.80859375 146.26953125 C-182.25849433 141.60267145 -182.70137594 137.18083026 -182 132 C-180.125 129.4375 -180.125 129.4375 -178 128 C-177.34 128 -176.68 128 -176 128 C-175.5978125 127.071875 -175.5978125 127.071875 -175.1875 126.125 C-174 124 -174 124 -171 122 C-169.97402909 120.2366125 -168.95085162 118.47065515 -167.98828125 116.671875 C-167 115 -167 115 -165.1875 113.3125 C-164.795625 112.879375 -164.40375 112.44625 -164 112 C-164.49509605 109.25076074 -165.44955774 106.76633575 -166.5 104.1875 C-169.14176253 96.96935086 -169.14176253 96.96935086 -169 93 C-165.50556523 87.59313818 -160.84576639 82.77611811 -154.5625 81.0625 C-150.52124367 79.85721302 -148.79297176 79.17040037 -146 76 C-145.27620344 74.01995884 -144.61567685 72.01628035 -144 70 C-142.88668302 66.37288397 -142.20493383 64.24478208 -139.75 61.3125 C-136.68616107 59.85021324 -134.27428465 59.59376812 -130.9296875 59.34765625 C-127.94541656 58.8100042 -126.19035695 56.99709016 -124 55 C-123.34 55 -122.68 55 -122 55 C-121.90460938 54.26136719 -121.80921875 53.52273437 -121.7109375 52.76171875 C-120.90058867 49.61382524 -119.80544642 48.19075063 -117.625 45.8125 C-117.01914063 45.13832031 -116.41328125 44.46414062 -115.7890625 43.76953125 C-114 42 -114 42 -111 40 C-110.7525 38.989375 -110.505 37.97875 -110.25 36.9375 C-108.93759972 31.73164554 -105.71568382 27.77826376 -102 24 C-95.68653123 20.77610105 -87.98964314 20.85438243 -81 21 C-80.71125 22.051875 -80.4225 23.10375 -80.125 24.1875 C-78.49598754 29.89708279 -78.49598754 29.89708279 -75.5 34.9375 C-72.2378345 39.42297757 -71.64744375 44.60463538 -71 50 C-68.21176345 51.0326802 -67.1322726 51.04509293 -64.25 50.0625 C-63.13625 49.5365625 -63.13625 49.5365625 -62 49 C-61.67944493 45.21625682 -61.67944493 45.21625682 -63.0625 43.0625 C-64.30922972 40.31969461 -63.89374256 38.83018476 -63 36 C-60.29964259 33.29964259 -57.86920086 33.28423013 -54.19140625 32.66015625 C-51.5274441 31.85764359 -50.62262904 31.26600382 -49 29 C-46.51182164 22.57627156 -46.90962026 16.59122162 -47.25390625 9.8515625 C-47.36423251 5.77598068 -47.3220428 3.56647619 -45.265625 -0.05078125 C-42.0937098 -2.77972209 -40.28622161 -2.64762045 -36.26171875 -2.44140625 C-32.76183833 -1.75835532 -30.7378953 -0.2464782 -28 2 C-27.855625 1.236875 -27.71125 0.47375 -27.5625 -0.3125 C-25.46275091 -3.92406844 -23.43012322 -4.51650371 -19.5 -5.625 C-12.47484104 -6.67877384 -5.93683051 -3.49848941 0 0 Z M-20 8 C-21.89942124 10.49552137 -21.89942124 10.49552137 -23 13 C-24.41702513 12.85769192 -25.8336096 12.71099254 -27.25 12.5625 C-28.43335938 12.44068359 -28.43335938 12.44068359 -29.640625 12.31640625 C-31.82364639 12.02365007 -33.8773182 11.57935581 -36 11 C-36.79655969 13.38967908 -37.05857292 14.76026942 -36.453125 17.23828125 C-35.89366309 20.64810511 -36.41407044 23.13931114 -37.1875 26.5 C-37.42855469 27.6034375 -37.66960937 28.706875 -37.91796875 29.84375 C-39.6121383 34.78558754 -42.47132456 37.78415953 -46.625 40.8125 C-49.99650871 43.60419511 -50.81133086 45.7354312 -51.53515625 49.97265625 C-52.0568915 52.24812345 -52.92584912 53.87918141 -54.125 55.875 C-56.17149859 58.67844015 -56.17149859 58.67844015 -56 61 C-63.49271102 62.0876516 -70.72593138 62.42468954 -78 60 C-79.59774869 57.38083339 -80.54974435 54.5950757 -81.5 51.6875 C-81.75910156 50.90117188 -82.01820313 50.11484375 -82.28515625 49.3046875 C-82.89896219 47.32575032 -83.42697564 45.32056249 -83.9375 43.3125 C-85.10236795 39.68085288 -86.8134114 37.10354511 -89 34 C-89.495 32.515 -89.495 32.515 -90 31 C-95.40787385 32.09786425 -95.40787385 32.09786425 -99 36 C-98.835 37.2375 -98.67 38.475 -98.5 39.75 C-98.421875 41.875 -98.421875 41.875 -99 44 C-101.31535855 46.15868015 -103.71304649 47.72774145 -106.421875 49.359375 C-110.4890685 51.94758904 -112.62402119 54.06822642 -114.4375 58.5625 C-116.20509619 62.45121163 -117.30713731 63.10853374 -121 65 C-121.5775 65.70125 -122.155 66.4025 -122.75 67.125 C-126.13128652 69.94273877 -129.71357254 69.81681934 -134 70 C-134.15855469 70.66386719 -134.31710938 71.32773438 -134.48046875 72.01171875 C-135.99687474 77.75060331 -137.38691877 81.04593038 -142 85 C-142.80168262 86.07594247 -143.59316692 87.1595486 -144.375 88.25 C-147.61990947 91.64942897 -149.43226729 91.58475157 -154 92 C-156.38028291 93.42675173 -156.38028291 93.42675173 -158 95 C-157.78290081 100.04526958 -157.78290081 100.04526958 -154.875 103.875 C-152.68367866 106.35849752 -152.67405459 106.98110437 -152.8125 110.1875 C-153.73469926 116.0280953 -157.26650962 119.63607374 -161 124 C-161.79229035 125.15220273 -162.56708285 126.31693263 -163.3125 127.5 C-165 130 -165 130 -167 131 C-167.309375 131.825 -167.61875 132.65 -167.9375 133.5 C-168.288125 134.325 -168.63875 135.15 -169 136 C-169.99 136.33 -170.98 136.66 -172 137 C-171.57405412 138.44096586 -171.13373367 139.87768712 -170.6875 141.3125 C-170.32205078 142.51326172 -170.32205078 142.51326172 -169.94921875 143.73828125 C-168.94856227 146.12256152 -167.81766068 147.21748746 -166 149 C-165.28930302 155.53841217 -166.39782967 162.65986072 -168 169 C-169.51171875 170.671875 -169.51171875 170.671875 -171 172 C-171.33 173.155 -171.66 174.31 -172 175.5 C-173.44318182 180.55113636 -173.44318182 180.55113636 -176 182 C-178.66666667 182 -181.33333333 182 -184 182 C-187.04025765 183.92549651 -187.84597689 186.67565358 -189 190 C-189.16008629 191.85017759 -189.26344241 193.70605768 -189.3125 195.5625 C-189.515625 198.49609375 -189.515625 198.49609375 -190 201 C-191.64295195 202.36244796 -193.30824337 203.69864875 -195 205 C-195.44799521 208.03996751 -195.29334547 210.94920712 -195 214 C-193.7625 214.20625 -192.525 214.4125 -191.25 214.625 C-186.56750324 215.75469327 -185.63547377 218.04678934 -183 222 C-180.95160455 222.78333323 -178.9817266 223.17930989 -176.828125 223.578125 C-174.45373697 224.1260607 -173.45940993 225.07972378 -172 227 C-171.54625 227.45375 -171.0925 227.9075 -170.625 228.375 C-169.820625 229.179375 -169.820625 229.179375 -169 230 C-167.7315625 231.2065625 -167.7315625 231.2065625 -166.4375 232.4375 C-164 235 -164 235 -163.19921875 237.11328125 C-162.12389296 239.29086052 -162.12389296 239.29086052 -159.3984375 239.609375 C-158.40070313 239.65578125 -157.40296875 239.7021875 -156.375 239.75 C-155.37210938 239.80671875 -154.36921875 239.8634375 -153.3359375 239.921875 C-152.56507813 239.94765625 -151.79421875 239.9734375 -151 240 C-150.505 237.03 -150.505 237.03 -150 234 C-145.38 233.67 -140.76 233.34 -136 233 C-134.515 235.475 -134.515 235.475 -133 238 C-131.1616873 239.00319412 -131.1616873 239.00319412 -129.125 239.4375 C-125.93524977 240.45215547 -124.3438866 241.39267761 -122.3125 244.0625 C-120.31633607 247.10559881 -120.31633607 247.10559881 -117.625 247.9375 C-114.71695376 249.11456634 -113.79057384 250.23981917 -111.75 252.5625 C-108.97207005 255.51748483 -107.23847458 256.47437692 -103.1875 256.8125 C-102.43855469 256.81894531 -101.68960938 256.82539063 -100.91796875 256.83203125 C-99 257 -99 257 -97 259 C-96.29289322 260.64991582 -95.62056011 262.31562256 -95 264 C-94.14728516 264.00386719 -94.14728516 264.00386719 -93.27734375 264.0078125 C-88.81475072 264.23131466 -86.04128839 264.53047261 -82.875 267.8125 C-78.59789626 272.05926967 -73.12552439 272.69625085 -67.42578125 273.84765625 C-63.40064608 275.20160708 -62.19371208 276.41641833 -60 280 C-59.015625 282.5078125 -59.015625 282.5078125 -58.25 285.125 C-56.04695552 291.65418425 -52.2611876 296.65283012 -48 302 C-46.989375 301.79375 -45.97875 301.5875 -44.9375 301.375 C-40.63862295 300.96558314 -37.98028518 301.36105905 -34 303 C-32.83563353 304.9216118 -32.07762101 306.76021534 -31.38671875 308.89453125 C-28.97222285 315.51753396 -24.12539613 317.52804566 -17.99609375 320.45703125 C-15.3423774 321.82367787 -14.03164054 322.93916923 -12 325 C-10.00238944 325.74567116 -10.00238944 325.74567116 -7.8125 326.25 C-3.24924608 327.6631367 -0.56113616 329.84164312 2.8828125 333.078125 C5.25279369 335.22947324 7.72091707 337.12204135 10.3125 339 C11.13363281 339.598125 11.95476562 340.19625 12.80078125 340.8125 C13.52652344 341.204375 14.25226563 341.59625 15 342 C18.70344028 340.76551991 20.30250982 338.76665659 23 336 C25.67655801 334.66172099 27.82434052 334.79421444 30.8125 334.75 C31.85019531 334.72421875 32.88789063 334.6984375 33.95703125 334.671875 C37.42582145 335.04591656 39.22110993 335.92431946 42 338 C42.99 339.485 42.99 339.485 44 341 C45.134375 341.37125 46.26875 341.7425 47.4375 342.125 C53.62484609 344.2289239 58.11691128 348.81449538 63 353 C65.33313052 354.84953619 67.12676227 356.05511403 69.875 357.25 C73.14854857 359.0831872 73.46050547 359.72347234 75.25 362.75 C76.95171348 364.91831234 78.17051776 365.88444396 80.92773438 366.26855469 C89.02120429 366.5115701 95.7818241 365.73816835 103 362 C105.44921875 361.890625 105.44921875 361.890625 107.6875 362.25 C108.80705078 362.41242188 108.80705078 362.41242188 109.94921875 362.578125 C112 363 112 363 115 364 C116.03382626 366.70408313 116.8671124 369.28123965 117.625 372.0625 C117.94984375 373.17141602 117.94984375 373.17141602 118.28125 374.30273438 C119.34030411 378.03884193 120.12827515 381.62988745 120.5234375 385.49609375 C120.68070312 386.65238281 120.83796875 387.80867188 121 389 C124.52991078 390.76495539 128.96267474 390.24672651 132.8828125 390.25390625 C138.63674204 390.45711194 140.76572479 392.19151783 145 396 C149.94285758 397.73000015 155.58632598 396.9907418 160.76171875 396.78515625 C166.57773794 396.67192402 169.74434585 397.88105217 174.0625 401.9375 C174.701875 402.618125 175.34125 403.29875 176 404 C176.721875 404.680625 177.44375 405.36125 178.1875 406.0625 C180 408 180 408 181 411 C184.03631155 411.35022605 184.03631155 411.35022605 185.68359375 409.34765625 C187.30380016 406.45820802 187.24566354 404.72104155 187.0625 401.4375 C186.79132621 396.31301069 186.79132621 396.31301069 189 393 C193.44466324 392.32736675 197.95267524 392.61815102 202.4375 392.75 C204.39586792 392.80595337 204.39586792 392.80595337 206.39379883 392.86303711 C218.31852924 393.49807324 226.83348796 397.10032419 237 403 C237.66 403 238.32 403 239 403 C239.63941528 401.78352783 239.63941528 401.78352783 240.29174805 400.54248047 C242 398 242 398 244.44848633 397.35986328 C245.87584106 397.34028564 245.87584106 397.34028564 247.33203125 397.3203125 C248.90114258 397.25650391 248.90114258 397.25650391 250.50195312 397.19140625 C252.69712676 397.14737327 254.89246432 397.11083231 257.08789062 397.08203125 C262.94614779 396.97543997 262.94614779 396.97543997 268.01342773 394.4206543 C269.62230115 392.57259247 269.62230115 392.57259247 270.87792969 390.63208008 C272.5489715 388.20150686 274.16410415 387.62251372 277 387 C279.3320802 386.92353835 281.66845878 386.90856701 284 387 C284.0928125 387.8353125 284.0928125 387.8353125 284.1875 388.6875 C285.38784365 392.10386271 287.22349578 393.70636608 290 396 C291.175625 396.28875 292.35125 396.5775 293.5625 396.875 C298.37749874 398.45081777 298.75289002 400.58603396 301 405 C305.59356214 406.53118738 310.34433938 406.82929356 315.140625 407.40234375 C318.89715051 407.9840729 322.36012689 408.92167694 326 410 C328.51891751 410.45997624 331.03829565 410.8619805 333.5703125 411.2421875 C338.88460352 412.89969949 341.76155226 416.54677593 344.3125 421.3125 C347.67808061 428.38195412 348.12727365 435.29259409 347 443 C346.0468378 445.02274116 345.05357947 447.02769924 344 449 C344 449.99 344 450.98 344 452 C348.61141063 453.82344329 352.13558873 454.09664178 357.0625 453.8125 C363.63811232 453.70244791 363.63811232 453.70244791 366.8125 456.3125 C367.534375 457.199375 368.25625 458.08625 369 459 C371.31030868 459.9347362 373.60034271 460.60244164 376.01171875 461.2265625 C378 462 378 462 380 465 C380.38499891 466.65549531 380.72793135 468.3222433 381 470 C387.72208462 472.18435245 393.51059238 473.31294781 400.58984375 472.8125 C403.6904865 473.05371694 404.88216216 473.72918064 407 476 C407.609375 478.69921875 407.609375 478.69921875 407.75 481.6875 C407.80671875 482.68136719 407.8634375 483.67523438 407.921875 484.69921875 C407.94765625 485.45847656 407.9734375 486.21773438 408 487 C412.84769758 489.06027147 416.9806333 489.66259945 422 488 C422.78375 487.195625 423.5675 486.39125 424.375 485.5625 C427.65714656 482.35849978 429.78349259 482.33027906 434.18359375 481.66796875 C437.5151809 480.87781424 440.11890143 479.50536193 443.125 477.875 C448.19591953 475.20918241 451.31879854 474.08694976 457 475 C459.125 476.3125 459.125 476.3125 461 478 C462.5159375 478.7115625 462.5159375 478.7115625 464.0625 479.4375 C467.21980777 481.11691902 468.30535763 481.89905739 470 485 C470.10767847 488.38110409 469.97548993 491.61537047 469.70703125 494.98046875 C469.53967314 498.84425815 469.85363413 501.36767255 472.203125 504.39453125 C475.66953222 507.62371228 477.92328943 508.50555442 482.5078125 509.2265625 C486.45592863 508.86764285 487.97295007 506.61126565 490.42578125 503.6953125 C492 502 492 502 494.9375 501.0625 C496.4534375 501.0315625 496.4534375 501.0315625 498 501 C498.64066406 500.92910156 499.28132812 500.85820313 499.94140625 500.78515625 C502.07902154 500.61885221 503.89007751 500.60546165 506 501 C507.412948 502.22027327 508.82346863 503.446637 510.16015625 504.75 C514.10182738 507.42799313 519.33351226 507.71718256 524 508 C524.99 507.67 525.98 507.34 527 507 C538.13009845 506.10407876 538.13009845 506.10407876 543 510 C547.18486657 513.04353933 550.93361502 514.76618493 555.81640625 516.28125 C559.72868179 517.56901154 563.08199208 519.08199208 566 522 C567.79758545 522.7831468 567.79758545 522.7831468 569.8125 523.4375 C573.15441928 524.63190436 575.97951968 526.12240413 579 528 C580.65369357 528.69822617 582.31727014 529.37498605 584 530 C584.33 529.67 584.66 529.34 585 529 C586.54131354 528.94685126 588.08311513 528.90760784 589.625 528.875 C594.94937738 528.42365192 597.30205184 526.57446352 600.8203125 522.69140625 C602.19068769 521.07029068 602.19068769 521.07029068 602 519 C602.556875 518.92523437 603.11375 518.85046875 603.6875 518.7734375 C608.36418728 517.96765692 611.48792006 516.9090849 615.1875 513.875 C617.88847627 511.67001139 618.81464788 511.03089202 622.375 510.4375 C625 511 625 511 627 514 C627.65409495 517.39266833 628.20485476 520.77408171 628.6796875 524.1953125 C629.19314697 527.35775604 629.62073186 529.56775206 631.76171875 532.0078125 C634.55242666 533.24488023 636.40868496 533.13545289 639.4375 532.875 C644.64247804 532.68811914 644.64247804 532.68811914 647.9375 535.5625 C648.618125 536.366875 649.29875 537.17125 650 538 C654.15053353 538.26777636 657.00473374 534.5062432 660 532 C664.38884408 529.50903444 669.08284268 529.0770874 674 530 C676.94791921 531.46184487 679.67348078 533.07465841 682.421875 534.8828125 C684.97623959 536.30586769 684.97623959 536.30586769 687.7109375 535.28125 C690.03045649 534.08436335 690.03045649 534.08436335 691.875 532.375 C694 531 694 531 697.5 531.125 C699.2325 531.063125 699.2325 531.063125 701 531 C702.38232443 529.37373596 703.71937515 527.7074998 705 526 C708.26907158 525.50963926 710.83909325 526.20977331 714 527 C714.33 526.67 714.66 526.34 715 526 C718.25 525.625 718.25 525.625 722 526 C724.625 528.1875 724.625 528.1875 727 531 C727.928125 531.928125 728.85625 532.85625 729.8125 533.8125 C730.534375 534.534375 731.25625 535.25625 732 536 C734.49361571 534.79618552 736.68143083 533.54571278 739 532 C739.50531866 530.07558585 739.50531866 530.07558585 739.51171875 527.8671875 C739.54716797 527.06152344 739.58261719 526.25585938 739.61914062 525.42578125 C739.65297852 524.16314453 739.65297852 524.16314453 739.6875 522.875 C739.72166016 522.02550781 739.75582031 521.17601562 739.79101562 520.30078125 C739.87359173 518.20098895 739.93846978 516.10051436 740 514 C740.66 514 741.32 514 742 514 C744.72783197 508.99897473 746.54522949 504.5789284 747.60546875 498.98046875 C748 497 748 497 749 494 C749.49506676 486.82153196 747.74774863 481.48834976 745.16796875 474.86328125 C744.90628906 474.18652344 744.64460937 473.50976562 744.375 472.8125 C744.11847656 472.16023438 743.86195313 471.50796875 743.59765625 470.8359375 C743 469 743 469 742.8125 465.9375 C741.52538905 461.28409888 737.89285676 458.69076807 734 456 C733.34 456 732.68 456 732 456 C731.71125 455.05125 731.4225 454.1025 731.125 453.125 C730.23174891 449.94788422 730.23174891 449.94788422 728 448 C727.66129032 441.67741935 727.66129032 441.67741935 729 439 C729.15553477 437.31504 729.27521729 435.62667869 729.375 433.9375 C729.86982252 427.96821242 730.6120205 421.3879795 735 417 C734.71281674 415.3247643 734.36871088 413.65919896 734 412 C733.84973698 407.79263535 734.1544724 404.10684833 735 400 C734.67 399.67 734.34 399.34 734 399 C733.01982352 391.81203913 736.02588542 385.44391493 739 379 C739.66 378.34 740.32 377.68 741 377 C741.33 376.175 741.66 375.35 742 374.5 C743 372 743 372 745 370 C745.60602665 367.63804589 745.60602665 367.63804589 746 365 C746.77777778 360.22222222 746.77777778 360.22222222 749 358 C749.02308597 355.77871445 749.02308597 355.77871445 748.625 353.375 C748.51414062 352.55773437 748.40328125 351.74046875 748.2890625 350.8984375 C748.19367187 350.27195312 748.09828125 349.64546875 748 349 C746.6078125 349.0928125 746.6078125 349.0928125 745.1875 349.1875 C744.135625 349.125625 743.08375 349.06375 742 349 C741.56171875 348.50113281 741.1234375 348.00226563 740.671875 347.48828125 C739.02567589 345.71664902 739.02567589 345.71664902 736.22265625 345.8125 C734.11848044 345.93734603 732.01431374 346.06234565 729.91015625 346.1875 C726.50080862 345.96783733 725.65799516 344.99736723 723 343 C719.9522555 342.63842121 719.9522555 342.63842121 716.75 342.8125 C715.67234375 342.83957031 714.5946875 342.86664063 713.484375 342.89453125 C712.66453125 342.92933594 711.8446875 342.96414063 711 343 C710.67386719 343.60328125 710.34773437 344.2065625 710.01171875 344.828125 C709.57472656 345.62734375 709.13773438 346.4265625 708.6875 347.25 C708.25824219 348.03890625 707.82898438 348.8278125 707.38671875 349.640625 C706.92910156 350.41921875 706.47148438 351.1978125 706 352 C705.64292969 352.74765625 705.28585937 353.4953125 704.91796875 354.265625 C701.66904109 357.20355551 697.83586507 356.57587144 693.625 356.5 C692.77421875 356.51546875 691.9234375 356.5309375 691.046875 356.546875 C685.60082052 356.5129432 683.12403929 355.78414594 679 352 C674.647671 351.99812946 674.647671 351.99812946 671 354 C669.56419394 354.07280964 668.12499502 354.08367423 666.6875 354.0625 C665.90761719 354.05347656 665.12773438 354.04445313 664.32421875 354.03515625 C663.17373047 354.01775391 663.17373047 354.01775391 662 354 C659.35408465 354 656.70808209 354.02050663 654.0625 354.0625 C651.55321507 354.07651835 649.60462424 353.91404875 647.125 353.375 C646.42375 353.25125 645.7225 353.1275 645 353 C644.34 353.66 643.68 354.32 643 355 C636.3861236 355.70862961 630.75138639 354.4211746 625 351 C623.25 348.1875 623.25 348.1875 622 345 C620.3079991 342.26590583 618.55450043 339.97140794 616 338 C613.73360455 337.55091794 611.60401484 337.49943664 609.296875 337.4375 C605.55270755 336.72432525 603.55803862 334.16414032 600.8984375 331.578125 C598.11013241 329.26027468 595.55201737 329.25371553 592 329 C584.61986557 326.92979836 584.61986557 326.92979836 582 323 C581.61500109 321.34450469 581.27206865 319.6777567 581 318 C579.989375 318.66 578.97875 319.32 577.9375 320 C574.17093468 322.19589234 571.33760167 322 567 322 C564.4631891 323.1982517 564.4631891 323.1982517 563 326 C562.08392278 329.63813524 561.48717949 333.28205125 561 337 C560.19820312 337.12503906 559.39640625 337.25007813 558.5703125 337.37890625 C557.72210937 337.58386719 556.87390625 337.78882813 556 338 C554.83333333 339.91666667 554.83333333 339.91666667 554 342 C550.31884463 344.45410358 548.34706402 344.23287843 544 344 C543.01 343.67 542.02 343.34 541 343 C540.67 342.01 540.34 341.02 540 340 C537.96722527 339.04882642 537.96722527 339.04882642 535.5625 338.4375 C531.19730942 337.19730942 531.19730942 337.19730942 529 335 C526.34462628 334.43479997 523.70855287 334.26211802 521 334 C520.80664062 332.94039063 520.61328125 331.88078125 520.4140625 330.7890625 C520.15144936 329.40096447 519.88840614 328.01294776 519.625 326.625 C519.43550781 325.57699219 519.43550781 325.57699219 519.2421875 324.5078125 C518.49856679 320.32740535 518.49856679 320.32740535 516 317 C515.01 317.66 514.02 318.32 513 319 C512.47146398 323.3163775 513.10668515 326.6064143 514.5625 330.625 C515.45778874 333.18483043 516.00578653 335.08679797 516.1875 337.8125 C514.17185664 341.52552723 510.92438141 342.76037276 507 344 C500.51670174 345.11431689 495.40405286 343.65754398 490 340 C487.9375 338.1875 487.9375 338.1875 487 336 C487.226875 334.9275 487.45375 333.855 487.6875 332.75 C488.095522 327.85373601 486.51599634 326.52864159 483.48828125 322.90234375 C481.55538459 320.43168582 480.87386086 317.99609439 480 315 C477.81453593 309.00185132 475.46108299 306.29210545 469.8984375 303.2109375 C465.55885359 300.44289015 463.65677557 295.69419746 462 291 C457.61105071 294.26720791 453.24740335 297.54898478 449 301 C448.9484375 300.31292969 448.896875 299.62585938 448.84375 298.91796875 C448.34833309 293.65830818 448.34833309 293.65830818 445.296875 289.66796875 C441.22541417 288.09066618 437.3682636 287.67238023 433 288 C432.773125 288.61875 432.54625 289.2375 432.3125 289.875 C430.51285147 292.78871667 429.30808996 293.08757257 426 294 C422.92327954 294.02642537 419.92582893 293.68712025 416.875 293.3125 C416.06417969 293.23322266 415.25335937 293.15394531 414.41796875 293.07226562 C413.63808594 292.98267578 412.85820313 292.89308594 412.0546875 292.80078125 C411.34812012 292.71997314 410.64155273 292.63916504 409.91357422 292.5559082 C407.57002798 291.87508978 406.66216789 290.74262297 405 289 C402.14390149 288.27778142 402.14390149 288.27778142 399 287.9375 C395.14195151 287.44105994 393.28344087 287.18896058 390 285 C389.77734375 282.828125 389.77734375 282.828125 389.9375 280.25 C390.08420945 276.00153872 389.40449231 273.02621128 388 269 C388.29062847 265.02807754 389.66129708 262.20488918 392 259 C392.70125 258.690625 393.4025 258.38125 394.125 258.0625 C394.74375 257.711875 395.3625 257.36125 396 257 C396.85650653 254.19954954 396.85650653 254.19954954 397 251 C397.0825 249.948125 397.165 248.89625 397.25 247.8125 C397.20985383 245.04053141 397.20985383 245.04053141 395.875 243.125 C393.07553259 241.44531955 391.20195936 241.54257723 388 242 C384.86842368 244.20056715 384.11501777 245.50158965 383.25 249.25 C383.1675 250.1575 383.085 251.065 383 252 C380.07355897 252.85603377 377.60153173 253.05863991 374.5625 252.9375 C370.83350627 252.87656873 368.45720292 253.59843125 365 255 C360.55503818 254.80674079 357.65646111 253.36213486 353.921875 251.015625 C351.78026315 249.8838789 349.79057216 249.42773507 347.4375 248.875 C343.23566766 247.5986755 341.78670184 245.74316895 339.5625 242 C338.69544685 240.34000081 337.83974334 238.67398017 337 237 C336.34 236.01 335.68 235.02 335 234 C332.3508225 233.44965533 332.3508225 233.44965533 329.3125 233.375 C328.23484375 233.30539063 327.1571875 233.23578125 326.046875 233.1640625 C324.53867188 233.08285156 324.53867188 233.08285156 323 233 C318.61548163 232.72161788 316.69526593 232.52531204 313.1875 229.875 C311 227 311 227 310 223.375 C309.31411743 219.93440022 309.31411743 219.93440022 306.875 218.1875 C304.00173861 217.00071812 301.1558777 216.22234099 298.12890625 215.52734375 C288.81318681 213.21978022 288.81318681 213.21978022 286 209 C285.9818399 205.63675017 286.10058087 202.33306592 286.34179688 198.98046875 C286.49094409 194.87318379 286.3119318 193.34361237 283.5 190.24609375 C282.2625 189.13427734 282.2625 189.13427734 281 188 C280.58203125 185.90234375 280.58203125 185.90234375 280.8125 183.9375 C281.00397621 179.91649956 280.68234528 179.32008291 279 176 C278.76171875 173.78125 278.76171875 173.78125 278.6875 171.5 C278.36986519 167.84420318 278.29930081 167.28433577 275.5 164.625 C274.2625 163.820625 274.2625 163.820625 273 163 C272.67 162.01 272.34 161.02 272 160 C271.31292969 159.93941406 270.62585938 159.87882813 269.91796875 159.81640625 C269.01691406 159.73261719 268.11585938 159.64882812 267.1875 159.5625 C265.84751953 159.44068359 265.84751953 159.44068359 264.48046875 159.31640625 C262 159 262 159 259 158 C259 157.34 259 156.68 259 156 C257.41705218 155.94562393 255.83355744 155.90703729 254.25 155.875 C253.36828125 155.85179687 252.4865625 155.82859375 251.578125 155.8046875 C248.83040266 156.01284828 247.27302623 156.45740692 245 158 C244.649375 158.99 244.29875 159.98 243.9375 161 C242 164 242 164 239.3671875 164.8359375 C236.57961326 165.32786237 233.81657349 165.72264641 231 166 C231 166.66 231 167.32 231 168 C230.401875 168.226875 229.80375 168.45375 229.1875 168.6875 C226.78236222 169.86845557 226.78236222 169.86845557 225.6875 172.5625 C224 175 224 175 221.0625 176.25 C215.12578226 176.77232924 209.66299292 172.19121367 205 169 C203 167 203 167 202.1875 164.5625 C201.23494176 161.80897451 201.23494176 161.80897451 198.625 160.8125 C193.98323033 157.60746856 192.96161866 151.9408232 191.26171875 146.7421875 C189.64544874 141.99270132 187.70558349 139.51555357 184 136 C182.6875 133.1875 182.6875 133.1875 182 131 C179.69 130.67 177.38 130.34 175 130 C174.72285156 129.28972656 174.44570313 128.57945312 174.16015625 127.84765625 C173.79792969 126.92855469 173.43570312 126.00945312 173.0625 125.0625 C172.70285156 124.14597656 172.34320313 123.22945313 171.97265625 122.28515625 C171.2003782 120.07581467 171.2003782 120.07581467 170 119 C168.2984375 118.7834375 168.2984375 118.7834375 166.5625 118.5625 C163 118 163 118 161 116 C159.01907088 116.024226 159.01907088 116.024226 156.8125 116.3125 C153.81791492 116.40802106 152.50645221 116.41898392 150.16796875 114.484375 C149.05452457 113.20143697 147.94514922 111.9149565 146.83984375 110.625 C143.68375747 107.83745883 140.06292372 107.93550915 136 108 C135.67 107.01 135.34 106.02 135 105 C134.26394531 105.04640625 133.52789062 105.0928125 132.76953125 105.140625 C124.74524785 105.43742808 124.74524785 105.43742808 121.125 103.3125 C119.61827119 101.67282453 118.11900924 100.02627337 116.625 98.375 C113.39251143 95.45036748 111.20478065 94.90691347 107 94 C106.79375 92.72125 106.5875 91.4425 106.375 90.125 C105.90590213 87.90396265 105.90590213 87.90396265 105 86 C103.01751285 85.28293018 101.01584651 84.61709587 99 84 C97.4375 80.8125 97.4375 80.8125 96.7578125 78.953125 C95.42740062 75.52422841 93.83031786 72.40831674 91 70 C88.88812885 69.71299114 87.04293346 69.87079559 84.92578125 70.078125 C83 70 83 70 80.1875 67.625 C79.465625 66.75875 78.74375 65.8925 78 65 C75.06543978 62.82032119 75.06543978 62.82032119 71.4375 62 C68 61 68 61 66 59 C64.824375 58.67 63.64875 58.34 62.4375 58 C61.303125 57.67 60.16875 57.34 59 57 C58.67 56.34 58.34 55.68 58 55 C55.48051359 54.56896902 55.48051359 54.56896902 52.5625 54.4375 C47.18834081 54.0941704 47.18834081 54.0941704 45 53 C45 47.66666667 45 42.33333333 45 37 C43.35 36.34 41.7 35.68 40 35 C40 34.34 40 33.68 40 33 C39.50886719 32.60167969 39.01773438 32.20335938 38.51171875 31.79296875 C36.2254076 29.08129738 36.709362 26.78481278 36.8125 23.3125 C36.85310547 21.54326172 36.85310547 21.54326172 36.89453125 19.73828125 C36.92933594 18.83464844 36.96414063 17.93101563 37 17 C36.07574219 17.32484375 35.15148437 17.6496875 34.19921875 17.984375 C30.8786952 19.03850946 28.45802285 19.30737981 25 19 C24.01 18.34 23.02 17.68 22 17 C20.05396726 16.40929986 20.05396726 16.40929986 18 16 C14.97444588 15.35821579 13.69508748 14.79672498 11 13 C8.94593762 12.67123762 6.88096855 12.40816898 4.8125 12.1875 C-0.52120673 11.45693661 -4.06197965 10.30190433 -8.31640625 7.0234375 C-12.12964443 4.70541336 -16.24644151 6.32287812 -20 8 Z " fill="#023590" transform="translate(222,13)"/>
<path d="M0 0 C2.62489375 1.31244687 2.81812603 2.46948166 3.9453125 5.1484375 C4.29980469 5.98890625 4.65429688 6.829375 5.01953125 7.6953125 C5.56673828 9.02175781 5.56673828 9.02175781 6.125 10.375 C6.49753906 11.2515625 6.87007813 12.128125 7.25390625 13.03125 C10 19.60980426 10 19.60980426 10 23 C14.74289861 20.33387356 18.98775346 17.09374201 23.3125 13.8125 C24.42334961 12.97428711 24.42334961 12.97428711 25.55664062 12.11914062 C27.37275454 10.74826754 29.18714134 9.37517323 31 8 C31.99477081 10.98431242 32.02772117 12.27317776 31.6953125 15.30859375 C31.56189453 16.55286133 31.56189453 16.55286133 31.42578125 17.82226562 C31.32652344 18.68529297 31.22726562 19.54832031 31.125 20.4375 C30.98771484 21.72624023 30.98771484 21.72624023 30.84765625 23.04101562 C30.43582372 26.77941095 29.9806737 30.36243271 29 34 C30.05574219 33.80083984 30.05574219 33.80083984 31.1328125 33.59765625 C39.07378645 32.17740373 46.94914043 31.45256311 55 31 C51.19524166 36.96655284 47.07763424 42.50260621 42.5390625 47.93359375 C40.80089054 49.83790278 40.80089054 49.83790278 41 52 C48.26 55.3 55.52 58.6 63 62 C60.04793553 64.21404836 58.20887394 65.49565772 54.9609375 66.82421875 C54.21585937 67.13037109 53.47078125 67.43652344 52.703125 67.75195312 C51.55070312 68.21504883 51.55070312 68.21504883 50.375 68.6875 C49.59898437 69.00783203 48.82296875 69.32816406 48.0234375 69.65820312 C42.2713053 72 42.2713053 72 40 72 C42.65551111 76.73333208 45.9019519 80.94666727 49.1875 85.25 C50.28732172 86.69105821 51.38509828 88.13368043 52.48046875 89.578125 C52.96410889 90.21137695 53.44774902 90.84462891 53.94604492 91.49707031 C55 93 55 93 55 94 C46.26609735 93.39214597 37.6540033 92.31858334 29 91 C29.09087891 91.57443848 29.18175781 92.14887695 29.27539062 92.74072266 C29.68831678 95.36809769 30.09421141 97.99651354 30.5 100.625 C30.64308594 101.52863281 30.78617187 102.43226563 30.93359375 103.36328125 C31.63734167 107.95439866 32.18584778 112.33831815 32 117 C24.31385736 112.11423491 17.16618528 106.60446639 10 101 C9.87310791 101.72920654 9.74621582 102.45841309 9.61547852 103.2097168 C9.02748685 105.87538788 8.22535136 108.14084682 7.15234375 110.64453125 C6.61577148 111.90620117 6.61577148 111.90620117 6.06835938 113.19335938 C5.50858398 114.48983398 5.50858398 114.48983398 4.9375 115.8125 C4.56044922 116.69615234 4.18339844 117.57980469 3.79492188 118.49023438 C2.86751446 120.66201124 1.93576366 122.83181367 1 125 C-2.29514279 121.22832887 -3.86332688 116.84280331 -5.6875 112.25 C-6.00783203 111.45722656 -6.32816406 110.66445313 -6.65820312 109.84765625 C-7.44407961 107.90055928 -8.2227574 105.95055951 -9 104 C-13.33841959 104 -13.8686311 104.29466489 -17.07421875 106.84375 C-17.82380859 107.43027344 -18.57339844 108.01679688 -19.34570312 108.62109375 C-20.11849609 109.24113281 -20.89128906 109.86117187 -21.6875 110.5 C-23.23162597 111.72058273 -24.77712328 112.93943333 -26.32421875 114.15625 C-27.3464856 114.97319336 -27.3464856 114.97319336 -28.3894043 115.80664062 C-30 117 -30 117 -31 117 C-31.34617156 108.51879678 -30.69213866 99.07641598 -28 91 C-28.64549805 91.09611572 -29.29099609 91.19223145 -29.95605469 91.29125977 C-32.88625745 91.72299316 -35.81804146 92.14286343 -38.75 92.5625 C-39.76578125 92.71396484 -40.7815625 92.86542969 -41.828125 93.02148438 C-42.8078125 93.16005859 -43.7875 93.29863281 -44.796875 93.44140625 C-46.14797363 93.63778687 -46.14797363 93.63778687 -47.52636719 93.83813477 C-49.95968635 93.99736203 -51.69214003 93.73710222 -54 93 C-53.41992188 92.23816406 -52.83984375 91.47632813 -52.2421875 90.69140625 C-47.62144592 84.58379238 -43.14899878 78.44315104 -39 72 C-40.794375 71.443125 -40.794375 71.443125 -42.625 70.875 C-49.25708093 68.67845479 -55.61008106 65.80865569 -62 63 C-59.74276115 60.46494714 -57.68044018 59.23830101 -54.55078125 57.95703125 C-53.70322266 57.60576172 -52.85566406 57.25449219 -51.98242188 56.89257812 C-51.10134766 56.53615234 -50.22027344 56.17972656 -49.3125 55.8125 C-48.41982422 55.44447266 -47.52714844 55.07644531 -46.60742188 54.69726562 C-44.40760154 53.79145725 -42.20517706 52.89266989 -40 52 C-41.3486267 49.12007843 -42.88869285 46.66765014 -44.8203125 44.14453125 C-45.35527344 43.44005859 -45.89023438 42.73558594 -46.44140625 42.00976562 C-46.99699219 41.28466797 -47.55257812 40.55957031 -48.125 39.8125 C-49.23389986 38.36230258 -50.34078811 36.91056396 -51.4453125 35.45703125 C-52.18031982 34.4976062 -52.18031982 34.4976062 -52.93017578 33.51879883 C-54 32 -54 32 -54 31 C-51.54095183 31.11593527 -49.08317532 31.24260277 -46.625 31.375 C-45.94566406 31.4059375 -45.26632813 31.436875 -44.56640625 31.46875 C-38.77415201 31.7935493 -33.84021402 32.8319572 -28 34 C-28.99 25.42 -29.98 16.84 -31 8 C-25.88803659 11.40797561 -20.8736106 14.75102007 -15.9375 18.375 C-14.99777344 19.06335938 -14.05804688 19.75171875 -13.08984375 20.4609375 C-12.40019531 20.96882813 -11.71054688 21.47671875 -11 22 C-7.71711411 18.24381461 -6.17750416 13.89131883 -4.375 9.3125 C-1.11476808 1.11476808 -1.11476808 1.11476808 0 0 Z " fill="#FEFCFC" transform="translate(236,203)"/>
<path d="M0 0 C2.66666667 2.66666667 5.33333333 5.33333333 8 8 C9.98 5.36 11.96 2.72 14 0 C14.99 0.495 14.99 0.495 16 1 C16.60107745 4.31726705 16.74433485 7.63374215 17 11 C20.63 9.35 24.26 7.7 28 6 C27.67 9.63 27.34 13.26 27 17 C30.96 16.67 34.92 16.34 39 16 C37.02 19.63 35.04 23.26 33 27 C35.27864583 27.1953125 37.55729167 27.390625 39.8359375 27.5859375 C42 28 42 28 44 30 C43.4946875 30.40992187 42.989375 30.81984375 42.46875 31.2421875 C41.49421875 32.05042969 41.49421875 32.05042969 40.5 32.875 C39.8503125 33.40867188 39.200625 33.94234375 38.53125 34.4921875 C38.0259375 34.98976562 37.520625 35.48734375 37 36 C37 36.66 37 37.32 37 38 C39.23715569 38.8508486 39.23715569 38.8508486 42 39 C52.51474822 33.02749728 59.43604868 22.43240872 65 12 C65.33 12 65.66 12 66 12 C67.25803624 24.3287551 61.1074792 36.34152939 54 46 C53.56300781 46.63164062 53.12601562 47.26328125 52.67578125 47.9140625 C44.06414503 59.24107951 29.68111887 65.67161816 16 68 C4.95402352 69.0256818 -5.83895784 68.78956613 -16 64 C-16.92941406 63.57589844 -17.85882813 63.15179688 -18.81640625 62.71484375 C-33.52532234 55.37061444 -42.66138035 43.60799867 -48.84375 28.62890625 C-50.5974664 23.12484364 -50.98089473 17.75068635 -51 12 C-49.2515422 14.26529752 -47.62987291 16.56187968 -46.0546875 18.953125 C-40.69636298 27.05783091 -35.18128703 33.54580864 -27 39 C-24.35367713 38.6878236 -24.35367713 38.6878236 -22 38 C-23.46884731 34.12758436 -25.49706804 33.02801324 -29 31 C-29 30.34 -29 29.68 -29 29 C-23.555 28.01 -23.555 28.01 -18 27 C-19.98 23.37 -21.96 19.74 -24 16 C-20.04 16.33 -16.08 16.66 -12 17 C-12.495 16.01 -12.495 16.01 -13 15 C-13.13559318 11.99525503 -13.04299016 9.00931153 -13 6 C-9.7 7.65 -6.4 9.3 -3 11 C-2.690625 9.370625 -2.38125 7.74125 -2.0625 6.0625 C-1.125 1.125 -1.125 1.125 0 0 Z " fill="#FEFBFC" transform="translate(229,82)"/>
<path d="M0 0 C0.33 0 0.66 0 1 0 C1 2.64 1 5.28 1 8 C0.34 7.34 -0.32 6.68 -1 6 C-1.99 6.495 -1.99 6.495 -3 7 C-1.125 1.125 -1.125 1.125 0 0 Z " fill="#F8D5DC" transform="translate(294,94)"/>
</svg>
